<svg xmlns="http://www.w3.org/2000/svg" xmlns:xlink="http://www.w3.org/1999/xlink" version="1.1" enable-background="new 0 0 538.6 538.6" xml:space="preserve" width="538.5999755859375" height="538.5999755859375" style=""><rect id="backgroundrect" width="100%" height="100%" x="0" y="0" fill="none" stroke="none"/>

<g class="currentLayer" style=""><title>Layer 1</title><g id="svg_1" class="selected" fill="#f9bb00" fill-opacity="1">
	<path d="M501.2,218.5c0,2-0.7,4.1-2,6.3c-1.3,2.3-3.1,4.7-5.4,7.3l-102.1,99.6l23.9,140.6c0,0.7,0.1,1.5,0.2,2.4   c0.2,1,0.2,2.1,0.2,3.4c0,2-0.2,3.7-0.7,5.4c-0.5,1.6-1.2,3.1-2.2,4.4c-1,1.6-2.2,2.8-3.7,3.4c-1.5,0.6-3.2,1-5.1,1   c-1.6,0-3.4-0.3-5.4-1c-2-0.7-3.9-1.5-5.9-2.4l-126.5-66.4L140.3,489c-2,1-3.9,1.8-5.9,2.4c-2,0.6-3.7,1-5.4,1c-2,0-3.7-0.3-5.1-1   c-1.5-0.7-2.7-1.8-3.7-3.4c-1-1.3-1.7-2.8-2.2-4.4c-0.5-1.6-0.7-3.4-0.7-5.4c0-0.6,0-1.5,0-2.4s0.2-2.1,0.5-3.4l23.9-140.6   L39.3,232.2c-2.3-2.6-4-5-5.1-7.3c-1.1-2.3-1.7-4.4-1.7-6.3c0-3.6,1.3-6.4,3.9-8.5c2.6-2.1,6.5-3.7,11.7-4.6l141.6-20.5l63.5-127.9   c1.6-3.9,3.6-6.8,5.9-8.8c2.3-2,4.9-2.9,7.8-2.9s5.5,1,7.8,2.9c2.3,2,4.2,4.9,5.9,8.8l63.5,127.9l141.6,20.5   c5.2,1,9.1,2.5,11.7,4.6C499.9,212.1,501.2,214.9,501.2,218.5z" id="svg_2" fill="#f9bb00" fill-opacity="1"/>
</g></g></svg>